<mxfile host="app.diagrams.net" modified="2024-01-16T09:23:38.243Z" agent="Mozilla/5.0 (Windows NT 10.0; Win64; x64) AppleWebKit/537.36 (KHTML, like Gecko) Chrome/121.0.0.0 Safari/537.36 Edg/121.0.0.0" etag="Oy2s56y4rGR_r3fvqWvi" version="22.1.18" type="github">
  <diagram name="第 1 页" id="WVP4NC2z3O7ZcO7en0TO">
    <mxGraphModel dx="2901" dy="1187" grid="1" gridSize="10" guides="1" tooltips="1" connect="1" arrows="1" fold="1" page="1" pageScale="1" pageWidth="827" pageHeight="1169" math="0" shadow="0">
      <root>
        <mxCell id="0" />
        <mxCell id="1" parent="0" />
        <mxCell id="dtP-VKnA-nbgMHcYzPn1-20" style="edgeStyle=orthogonalEdgeStyle;rounded=0;orthogonalLoop=1;jettySize=auto;html=1;exitX=0.5;exitY=1;exitDx=0;exitDy=0;entryX=0.5;entryY=0;entryDx=0;entryDy=0;" edge="1" parent="1" source="dtP-VKnA-nbgMHcYzPn1-1" target="dtP-VKnA-nbgMHcYzPn1-8">
          <mxGeometry relative="1" as="geometry" />
        </mxCell>
        <mxCell id="dtP-VKnA-nbgMHcYzPn1-21" style="edgeStyle=orthogonalEdgeStyle;rounded=0;orthogonalLoop=1;jettySize=auto;html=1;exitX=0.5;exitY=1;exitDx=0;exitDy=0;entryX=0.5;entryY=0;entryDx=0;entryDy=0;" edge="1" parent="1" source="dtP-VKnA-nbgMHcYzPn1-1" target="dtP-VKnA-nbgMHcYzPn1-2">
          <mxGeometry relative="1" as="geometry" />
        </mxCell>
        <mxCell id="dtP-VKnA-nbgMHcYzPn1-22" style="edgeStyle=orthogonalEdgeStyle;rounded=0;orthogonalLoop=1;jettySize=auto;html=1;exitX=0.5;exitY=1;exitDx=0;exitDy=0;entryX=0.5;entryY=0;entryDx=0;entryDy=0;" edge="1" parent="1" source="dtP-VKnA-nbgMHcYzPn1-1" target="dtP-VKnA-nbgMHcYzPn1-3">
          <mxGeometry relative="1" as="geometry" />
        </mxCell>
        <mxCell id="dtP-VKnA-nbgMHcYzPn1-23" style="edgeStyle=orthogonalEdgeStyle;rounded=0;orthogonalLoop=1;jettySize=auto;html=1;exitX=0.5;exitY=1;exitDx=0;exitDy=0;entryX=0.5;entryY=0;entryDx=0;entryDy=0;" edge="1" parent="1" source="dtP-VKnA-nbgMHcYzPn1-1" target="dtP-VKnA-nbgMHcYzPn1-4">
          <mxGeometry relative="1" as="geometry" />
        </mxCell>
        <mxCell id="dtP-VKnA-nbgMHcYzPn1-24" style="edgeStyle=orthogonalEdgeStyle;rounded=0;orthogonalLoop=1;jettySize=auto;html=1;exitX=0.5;exitY=1;exitDx=0;exitDy=0;entryX=0.5;entryY=0;entryDx=0;entryDy=0;" edge="1" parent="1" source="dtP-VKnA-nbgMHcYzPn1-1" target="dtP-VKnA-nbgMHcYzPn1-9">
          <mxGeometry relative="1" as="geometry" />
        </mxCell>
        <mxCell id="dtP-VKnA-nbgMHcYzPn1-25" style="edgeStyle=orthogonalEdgeStyle;rounded=0;orthogonalLoop=1;jettySize=auto;html=1;exitX=0.5;exitY=1;exitDx=0;exitDy=0;entryX=0.5;entryY=0;entryDx=0;entryDy=0;" edge="1" parent="1" source="dtP-VKnA-nbgMHcYzPn1-1" target="dtP-VKnA-nbgMHcYzPn1-10">
          <mxGeometry relative="1" as="geometry" />
        </mxCell>
        <mxCell id="dtP-VKnA-nbgMHcYzPn1-1" value="总体功能设计" style="rounded=1;whiteSpace=wrap;html=1;" vertex="1" parent="1">
          <mxGeometry x="310" y="20" width="420" height="60" as="geometry" />
        </mxCell>
        <mxCell id="dtP-VKnA-nbgMHcYzPn1-15" style="edgeStyle=orthogonalEdgeStyle;rounded=0;orthogonalLoop=1;jettySize=auto;html=1;exitX=0.5;exitY=1;exitDx=0;exitDy=0;entryX=0.5;entryY=0;entryDx=0;entryDy=0;" edge="1" parent="1" source="dtP-VKnA-nbgMHcYzPn1-2" target="dtP-VKnA-nbgMHcYzPn1-6">
          <mxGeometry relative="1" as="geometry" />
        </mxCell>
        <mxCell id="dtP-VKnA-nbgMHcYzPn1-16" style="edgeStyle=orthogonalEdgeStyle;rounded=0;orthogonalLoop=1;jettySize=auto;html=1;exitX=0.5;exitY=1;exitDx=0;exitDy=0;entryX=0.5;entryY=0;entryDx=0;entryDy=0;" edge="1" parent="1" source="dtP-VKnA-nbgMHcYzPn1-2" target="dtP-VKnA-nbgMHcYzPn1-11">
          <mxGeometry relative="1" as="geometry" />
        </mxCell>
        <mxCell id="dtP-VKnA-nbgMHcYzPn1-2" value="资产目录" style="whiteSpace=wrap;html=1;align=center;verticalAlign=middle;horizontal=1;" vertex="1" parent="1">
          <mxGeometry x="166" y="200" width="80" height="200" as="geometry" />
        </mxCell>
        <mxCell id="dtP-VKnA-nbgMHcYzPn1-3" value="资产发布" style="whiteSpace=wrap;html=1;align=center;verticalAlign=middle;horizontal=1;" vertex="1" parent="1">
          <mxGeometry x="352" y="200" width="80" height="200" as="geometry" />
        </mxCell>
        <mxCell id="dtP-VKnA-nbgMHcYzPn1-4" value="资产共享" style="whiteSpace=wrap;html=1;align=center;verticalAlign=middle;horizontal=1;" vertex="1" parent="1">
          <mxGeometry x="538" y="200" width="80" height="200" as="geometry" />
        </mxCell>
        <mxCell id="dtP-VKnA-nbgMHcYzPn1-6" value="目录维护" style="whiteSpace=wrap;html=1;align=center;verticalAlign=middle;horizontal=1;" vertex="1" parent="1">
          <mxGeometry x="86" y="530" width="80" height="200" as="geometry" />
        </mxCell>
        <mxCell id="dtP-VKnA-nbgMHcYzPn1-8" value="资产概览" style="whiteSpace=wrap;html=1;align=center;verticalAlign=middle;horizontal=1;" vertex="1" parent="1">
          <mxGeometry x="-20" y="200" width="80" height="200" as="geometry" />
        </mxCell>
        <mxCell id="dtP-VKnA-nbgMHcYzPn1-17" style="edgeStyle=orthogonalEdgeStyle;rounded=0;orthogonalLoop=1;jettySize=auto;html=1;exitX=0.5;exitY=1;exitDx=0;exitDy=0;entryX=0.5;entryY=0;entryDx=0;entryDy=0;" edge="1" parent="1" source="dtP-VKnA-nbgMHcYzPn1-9" target="dtP-VKnA-nbgMHcYzPn1-13">
          <mxGeometry relative="1" as="geometry" />
        </mxCell>
        <mxCell id="dtP-VKnA-nbgMHcYzPn1-18" style="edgeStyle=orthogonalEdgeStyle;rounded=0;orthogonalLoop=1;jettySize=auto;html=1;exitX=0.5;exitY=1;exitDx=0;exitDy=0;" edge="1" parent="1" source="dtP-VKnA-nbgMHcYzPn1-9" target="dtP-VKnA-nbgMHcYzPn1-12">
          <mxGeometry relative="1" as="geometry" />
        </mxCell>
        <mxCell id="dtP-VKnA-nbgMHcYzPn1-19" style="edgeStyle=orthogonalEdgeStyle;rounded=0;orthogonalLoop=1;jettySize=auto;html=1;exitX=0.5;exitY=1;exitDx=0;exitDy=0;entryX=0.5;entryY=0;entryDx=0;entryDy=0;" edge="1" parent="1" source="dtP-VKnA-nbgMHcYzPn1-9" target="dtP-VKnA-nbgMHcYzPn1-14">
          <mxGeometry relative="1" as="geometry" />
        </mxCell>
        <mxCell id="dtP-VKnA-nbgMHcYzPn1-9" value="审批中心" style="whiteSpace=wrap;html=1;align=center;verticalAlign=middle;horizontal=1;" vertex="1" parent="1">
          <mxGeometry x="724" y="200" width="80" height="200" as="geometry" />
        </mxCell>
        <mxCell id="dtP-VKnA-nbgMHcYzPn1-10" value="监控日志" style="whiteSpace=wrap;html=1;align=center;verticalAlign=middle;horizontal=1;" vertex="1" parent="1">
          <mxGeometry x="910" y="200" width="80" height="200" as="geometry" />
        </mxCell>
        <mxCell id="dtP-VKnA-nbgMHcYzPn1-11" value="目录授权" style="whiteSpace=wrap;html=1;align=center;verticalAlign=middle;horizontal=1;" vertex="1" parent="1">
          <mxGeometry x="246" y="530" width="80" height="200" as="geometry" />
        </mxCell>
        <mxCell id="dtP-VKnA-nbgMHcYzPn1-12" value="审核人配置" style="whiteSpace=wrap;html=1;align=center;verticalAlign=middle;horizontal=1;" vertex="1" parent="1">
          <mxGeometry x="595" y="530" width="80" height="200" as="geometry" />
        </mxCell>
        <mxCell id="dtP-VKnA-nbgMHcYzPn1-13" value="我的申请" style="whiteSpace=wrap;html=1;align=center;verticalAlign=middle;horizontal=1;" vertex="1" parent="1">
          <mxGeometry x="724" y="530" width="80" height="200" as="geometry" />
        </mxCell>
        <mxCell id="dtP-VKnA-nbgMHcYzPn1-14" value="我的审批" style="whiteSpace=wrap;html=1;align=center;verticalAlign=middle;horizontal=1;" vertex="1" parent="1">
          <mxGeometry x="855" y="530" width="80" height="200" as="geometry" />
        </mxCell>
      </root>
    </mxGraphModel>
  </diagram>
</mxfile>
